<?xml version="1.0" standalone="no"?>
<!DOCTYPE svg PUBLIC "-//W3C//DTD SVG 20010904//EN"
 "http://www.w3.org/TR/2001/REC-SVG-20010904/DTD/svg10.dtd">
<svg version="1.0" xmlns="http://www.w3.org/2000/svg"
 width="1024.000000pt" height="1024.000000pt" viewBox="0 0 1024.000000 1024.000000"
 preserveAspectRatio="xMidYMid meet">
<defs>
<mask id="iconMask">
<rect width="1024" height="1024" fill="white"/>
<g transform="translate(0.000000,1024.000000) scale(0.100000,-0.100000)" fill="black">
<path d="M0 5120 l0 -5120 5120 0 5120 0 0 5120 0 5120 -5120 0 -5120 0 0
-5120z m4489 3079 c115 -32 231 -99 318 -182 l42 -40 58 18 c86 26 146 33 268
34 361 2 668 -122 1010 -409 84 -71 245 -190 380 -280 149 -101 203 -166 201
-245 l-1 -40 -42 3 c-42 3 -73 -7 -106 -36 -16 -14 -8 -19 100 -67 65 -29 181
-76 258 -105 77 -29 171 -68 209 -87 74 -37 206 -122 206 -132 0 -4 -64 3
-142 15 -98 15 -158 20 -195 15 -74 -11 -85 -27 -80 -122 3 -69 8 -85 48 -154
24 -43 61 -93 83 -111 l39 -33 -12 -47 c-19 -73 -61 -126 -131 -163 -57 -31
-99 -34 -204 -16 -76 13 -144 16 -309 13 -117 -2 -220 -8 -229 -12 -21 -10
-32 -36 -19 -49 10 -10 93 -25 438 -77 255 -38 285 -51 248 -106 -36 -55 -125
-78 -435 -109 -290 -29 -397 -45 -560 -81 -116 -26 -488 -130 -569 -158 -54
-20 -86 -20 -220 -1 -199 29 -404 106 -566 214 -90 60 -227 196 -292 291 -86
127 -174 319 -218 477 -10 35 -21 60 -25 58 -12 -7 -57 -207 -71 -310 -17
-133 -6 -456 19 -565 70 -294 218 -568 441 -817 l100 -111 -23 -49 c-94 -196
-185 -558 -221 -874 -19 -170 -38 -563 -30 -607 l6 -33 -58 37 c-92 58 -192
137 -325 253 -351 307 -557 618 -708 1071 -45 135 -92 322 -104 415 -2 22 -10
78 -16 125 -6 47 -12 154 -13 237 -1 84 -4 153 -7 153 -7 0 -34 -48 -81 -140
-131 -259 -212 -622 -226 -1011 -5 -150 -2 -213 23 -404 7 -54 39 -200 70
-314 13 -52 23 -96 21 -97 -7 -8 -87 168 -121 265 -85 242 -136 465 -157 686
-14 138 -17 427 -5 535 54 516 231 1049 499 1505 177 301 335 511 590 780 109
115 106 115 162 6 58 -114 54 -112 114 -62 28 24 51 48 51 54 0 5 -27 78 -61
161 -51 125 -63 170 -77 265 -15 107 -15 119 2 200 38 185 154 317 326 372 81
26 232 25 329 -2z m1703 -318 c124 -34 251 -130 290 -219 21 -46 30 -144 15
-158 -4 -4 -29 13 -55 38 -68 65 -191 161 -325 253 -64 44 -117 83 -117 87 0
6 35 12 100 16 14 1 56 -6 92 -17z m1188 -1592 c-49 -145 -166 -299 -228 -299
-16 0 -31 3 -35 6 -3 3 10 26 28 50 34 44 75 139 75 173 0 11 22 32 58 54 31
19 70 49 87 67 16 17 31 27 33 22 2 -6 -7 -38 -18 -73z m-630 -955 c538 -384
843 -820 956 -1364 14 -65 18 -134 19 -300 0 -271 -9 -339 -71 -510 -162 -452
-573 -797 -1216 -1019 -60 -21 -108 -34 -108 -30 0 5 25 58 55 119 167 332
266 752 268 1130 1 180 -12 296 -54 469 -27 115 -90 293 -110 316 -5 5 -9 -18
-9 -58 0 -145 -57 -431 -125 -627 -69 -198 -192 -432 -318 -605 -81 -112 -210
-257 -294 -331 -43 -38 -80 -71 -83 -74 -3 -3 -48 -37 -100 -76 -311 -231
-591 -334 -946 -349 -133 -6 -276 3 -291 19 -3 3 8 22 24 43 73 95 182 278
247 418 67 140 107 244 196 505 209 607 308 840 477 1112 195 315 478 604 873
894 253 185 373 288 431 372 29 41 31 42 57 28 15 -8 70 -45 122 -82z"/>
<path d="M4270 7934 c-66 -24 -93 -42 -117 -77 -26 -37 -28 -47 -27 -131 1
-102 21 -169 100 -335 l44 -94 76 81 c85 92 207 193 306 255 37 23 68 46 68
51 0 5 -40 49 -88 97 -106 106 -186 149 -285 155 -34 2 -69 1 -77 -2z"/>
<path d="M5665 7171 l-40 -6 47 -36 c26 -20 68 -61 92 -92 45 -55 66 -67 145
-82 22 -5 47 -22 69 -46 20 -22 38 -39 42 -39 4 0 24 14 45 30 21 17 46 30 57
30 29 0 89 34 123 70 l30 31 -35 29 c-45 37 -147 87 -203 100 -53 11 -315 19
-372 11z"/>
</g>
</mask>
</defs>
<rect width="1024" height="1024" fill="white" mask="url(#iconMask)"/>
</svg>
