<?xml version="1.0" standalone="no"?>
<!DOCTYPE svg PUBLIC "-//W3C//DTD SVG 20010904//EN"
 "http://www.w3.org/TR/2001/REC-SVG-20010904/DTD/svg10.dtd">
<svg version="1.0" xmlns="http://www.w3.org/2000/svg"
 width="1024.000000pt" height="1024.000000pt" viewBox="0 0 1024.000000 1024.000000"
 preserveAspectRatio="xMidYMid meet">
<defs>
<mask id="icon2Mask">
<rect width="1024" height="1024" fill="white"/>
<g transform="translate(0.000000,1024.000000) scale(0.100000,-0.100000)" fill="black">
<path d="M0 5120 l0 -5120 5120 0 5120 0 0 5120 0 5120 -5120 0 -5120 0 0
-5120z m4310 3320 c25 -6 74 -22 110 -37 120 -49 197 -108 373 -287 92 -93
167 -167 167 -164 0 4 -19 37 -41 73 -23 36 -40 68 -37 70 15 15 355 25 502
15 414 -28 750 -109 1055 -256 324 -155 541 -356 717 -664 94 -164 95 -196 8
-254 -31 -21 -54 -39 -52 -41 1 -1 38 -12 80 -24 112 -30 235 -87 578 -267
259 -137 420 -230 408 -239 -2 -1 -39 2 -83 6 -277 26 -495 -6 -615 -91 -37
-26 -39 -60 -9 -155 26 -84 75 -136 207 -219 50 -32 92 -65 92 -73 0 -25 -41
-136 -65 -178 -32 -53 -71 -90 -117 -109 -48 -20 -138 -20 -563 -1 -420 20
-537 9 -700 -66 l-50 -23 85 -8 c47 -4 198 -24 335 -43 138 -19 293 -39 345
-45 105 -12 375 -14 416 -4 l26 7 -4 -77 c-4 -95 -13 -104 -142 -156 l-97 -39
-297 15 c-379 20 -686 14 -907 -17 -129 -18 -208 -22 -410 -23 -263 -1 -319 5
-495 50 -387 100 -704 332 -897 657 l-40 68 -7 -32 c-13 -64 -6 -395 9 -485
52 -299 231 -616 482 -854 42 -41 70 -71 62 -68 -8 3 -56 17 -107 32 -578 166
-967 633 -1099 1321 -20 104 -28 449 -15 585 6 57 10 106 8 107 -6 7 -189
-235 -277 -366 -101 -150 -227 -400 -287 -566 -51 -140 -105 -356 -128 -510
-46 -314 -10 -689 95 -972 32 -88 82 -193 91 -193 3 0 12 35 19 77 25 149 103
344 183 461 26 38 33 43 36 27 37 -240 138 -518 274 -755 118 -205 217 -331
407 -520 296 -295 646 -515 1021 -641 96 -32 317 -82 330 -74 4 2 10 35 14 72
9 88 49 297 87 448 163 661 450 1143 879 1477 95 73 230 168 240 168 4 0 10
-100 13 -222 8 -313 45 -538 128 -774 37 -106 115 -268 164 -343 l35 -53 -113
-132 c-129 -149 -386 -406 -527 -526 -295 -252 -645 -488 -995 -671 l-137 -72
-56 13 c-85 19 -322 102 -457 160 -643 275 -1228 756 -1463 1202 l-30 58 -8
-88 c-4 -48 -4 -189 -1 -314 5 -228 5 -228 -15 -217 -47 25 -309 301 -395 416
-199 265 -361 597 -437 895 -66 257 -80 384 -80 728 -1 241 3 330 17 425 53
354 149 651 318 985 159 314 321 540 549 770 139 141 199 191 408 342 l52 37
72 -30 c73 -30 235 -89 245 -89 3 0 -13 22 -36 48 -81 98 -205 353 -242 503
-31 121 -24 255 19 362 35 87 101 193 158 256 74 83 225 164 359 194 39 9 210
6 255 -3z m3715 -2702 c-33 -116 -96 -250 -131 -277 -30 -24 -78 -27 -113 -7
l-25 14 31 6 c56 13 83 62 123 219 l28 110 53 22 c30 12 55 18 57 14 2 -5 -8
-50 -23 -101z"/>
<path d="M3993 8075 c-80 -48 -138 -219 -131 -385 3 -74 9 -95 42 -161 21 -41
60 -106 88 -143 l49 -68 142 139 c139 136 247 218 365 277 29 15 52 31 50 36
-2 5 -37 48 -78 95 -103 121 -201 184 -341 220 -84 22 -137 19 -186 -10z"/>
<path d="M5851 7250 c-70 -15 -173 -51 -210 -73 l-33 -20 81 -24 c140 -40 167
-59 216 -150 37 -69 96 -127 164 -160 45 -22 69 -28 131 -28 67 0 88 5 192 48
l116 48 52 -37 51 -36 89 41 c48 22 93 41 99 41 14 0 -43 51 -139 124 -92 71
-285 166 -405 202 -73 21 -115 27 -225 30 -74 2 -155 -1 -179 -6z"/>
</g>
</mask>
</defs>
<rect width="1024" height="1024" fill="white" mask="url(#icon2Mask)"/>
</svg>
